<svg width="206" height="61" viewBox="0 0 206 61" fill="none" xmlns="http://www.w3.org/2000/svg">
<path d="M198.37 0H7.62963C3.4159 0 0 3.41383 0 7.625V53.375C0 57.5862 3.4159 61 7.62963 61H198.37C202.584 61 206 57.5862 206 53.375V7.625C206 3.41383 202.584 0 198.37 0Z" fill="black"/>
<path d="M72.3594 15.616C72.4052 16.7445 71.9932 17.8425 71.215 18.666C70.3452 19.581 69.1245 20.069 67.8579 20.0385C65.92 20.008 64.1957 18.8185 63.4327 17.0495C62.7156 15.2653 63.1276 13.2065 64.5009 11.834C65.3707 10.919 66.5914 10.431 67.8579 10.4615C68.4988 10.4615 69.1397 10.5835 69.7348 10.8428C70.2842 11.0868 70.7725 11.4528 71.1692 11.8798L70.3605 12.688C69.7501 11.9713 68.8345 11.5748 67.8732 11.6205C66.9119 11.6205 65.981 12.0018 65.3096 12.688C64.623 13.3895 64.272 14.3198 64.3025 15.2805C64.3025 16.7293 65.1418 18.056 66.4693 18.6355C67.8122 19.215 69.3686 18.9405 70.4062 17.9188C70.864 17.4155 71.1692 16.7445 71.1692 16.0583H67.8579V14.9908H72.2831C72.3442 15.2043 72.3594 15.4483 72.3594 15.6618V15.616ZM79.3482 11.8035H75.2282V14.701H78.9819V15.799H75.2282V18.6965H79.3482V19.825H74.0074V10.675H79.3482V11.8035ZM84.3532 19.825H83.1782V11.8035H80.6299V10.675H86.9778V11.8035H84.3532V19.825ZM91.464 19.825V10.675H92.639V19.825H91.464ZM97.8576 19.825H96.6827V11.8035H94.1191V10.675H100.406V11.8035H97.8576V19.825ZM112.308 18.6355C110.477 20.4655 107.471 20.4655 105.594 18.6355C104.734 17.7149 104.255 16.5021 104.255 15.2424C104.255 13.9827 104.734 12.77 105.594 11.8493C106.51 10.9343 107.7 10.4463 108.951 10.4463C110.233 10.4463 111.438 10.9495 112.308 11.8493C113.189 12.7594 113.682 13.9761 113.682 15.2424C113.682 16.5087 113.189 17.7254 112.308 18.6355ZM106.479 17.873C107.852 19.2455 110.08 19.2455 111.454 17.873C112.827 16.3785 112.827 14.1215 111.454 12.627C110.08 11.2545 107.852 11.2545 106.479 12.627C105.106 14.1215 105.106 16.3785 106.479 17.873ZM115.329 19.825V10.675H116.764L121.22 17.7968V10.675H122.395V19.825H121.174L116.535 12.3525V19.825H115.329Z" fill="white" stroke="white" stroke-width="0.2"/>
<path d="M103.977 33.1688C100.406 33.1688 97.5067 36.0968 97.5219 39.6653C97.53 41.3871 98.22 43.0355 99.4411 44.2501C100.662 45.4647 102.315 46.1466 104.038 46.1466C107.608 46.1466 110.508 43.2491 110.508 39.6653C110.553 37.9268 109.867 36.2646 108.646 35.0446C107.425 33.8246 105.747 33.1536 104.007 33.1841L103.977 33.1688ZM103.977 43.5846C102.359 43.6913 100.848 42.8221 100.162 41.3581C99.4598 39.8941 99.704 38.1556 100.818 36.9813C101.917 35.7918 103.626 35.4106 105.136 35.9901C106.662 36.6001 107.639 38.0336 107.639 39.6501C107.685 40.6566 107.334 41.6326 106.632 42.3951C105.945 43.1271 104.984 43.5541 103.977 43.5846ZM89.7855 33.1688C86.1843 33.1688 83.3003 36.0663 83.3003 39.6653C83.3003 41.3822 83.9827 43.0288 85.1975 44.2429C86.4123 45.4569 88.0599 46.139 89.7778 46.139C91.4958 46.139 93.1434 45.4569 94.3582 44.2429C95.573 43.0288 96.2554 41.3822 96.2554 39.6653C96.2554 37.9268 95.584 36.2646 94.3633 35.0446C93.1425 33.8246 91.464 33.1536 89.7244 33.1841L89.7855 33.1688ZM89.7855 43.5846C88.1527 43.7066 86.6421 42.8221 85.9401 41.3733C85.2382 39.9093 85.4824 38.1708 86.5963 36.9813C87.1358 36.4056 87.8349 36.0037 88.6041 35.8271C89.3734 35.6505 90.1779 35.7073 90.9147 35.9901C92.4406 36.6001 93.4172 38.0336 93.4172 39.6501C93.463 40.6566 93.112 41.6326 92.4101 42.3951C91.7234 43.1271 90.7621 43.5541 89.755 43.5846H89.7855ZM72.8477 35.1666V37.9116H79.4397C79.3329 39.2078 78.7988 40.4278 77.9138 41.3733C76.5862 42.7458 74.7398 43.4626 72.8324 43.3863C70.9158 43.3472 69.0908 42.5588 67.7491 41.1903C66.4074 39.8218 65.656 37.9822 65.656 36.0663C65.656 34.1504 66.4074 32.3108 67.7491 30.9423C69.0908 29.5738 70.9158 28.7854 72.8324 28.7463C74.6941 28.7158 76.4947 29.4173 77.8222 30.7288L79.7601 28.7768C78.8539 27.8682 77.7763 27.1483 76.5898 26.6588C75.4033 26.1693 74.1314 25.9199 72.8477 25.9251C69.155 25.7726 65.6758 27.6636 63.7837 30.8508C62.8549 32.4072 62.3646 34.1856 62.3646 35.9977C62.3646 37.8098 62.8549 39.5882 63.7837 41.1446C64.7087 42.7071 66.0398 43.99 67.6357 44.8573C69.2315 45.7246 71.0326 46.1437 72.8477 46.0703C75.4876 46.2228 78.0358 45.1553 79.867 43.2643C81.4806 41.5171 82.3412 39.2053 82.2627 36.8288C82.2627 36.2493 82.2321 35.6698 82.1101 35.1056L72.863 35.1971L72.8477 35.1666ZM141.972 37.3016C141.583 36.1306 140.842 35.1075 139.851 34.371C138.861 33.6345 137.667 33.2202 136.433 33.1841C134.755 33.1841 133.152 33.8551 132.008 35.0903C130.833 36.3103 130.238 37.9878 130.329 39.6653C130.329 41.3886 130.97 43.0508 132.191 44.2708C133.412 45.4908 135.06 46.1771 136.769 46.1466C138.951 46.1466 140.98 45.0791 142.186 43.2796L139.973 41.7546C139.302 42.8678 138.096 43.5541 136.769 43.5541C135.426 43.5998 134.175 42.8221 133.641 41.5716L142.338 38.0031L142.003 37.3321L141.972 37.3016ZM133.122 39.4671C133.076 38.5216 133.396 37.5761 134.037 36.8746C134.678 36.1578 135.563 35.7308 136.525 35.6851C137.532 35.6241 138.478 36.1426 138.936 37.0576L133.137 39.4671H133.122ZM126.118 45.7501H128.956V26.6876H126.103V45.7501H126.118ZM121.433 34.6176H121.326C120.457 33.6416 119.221 33.0926 117.908 33.0926C114.444 33.2451 111.728 36.1121 111.728 39.5738C111.728 43.0508 114.475 45.9026 117.924 46.0703C119.236 46.1008 120.487 45.5518 121.342 44.5453H121.433V45.4908C121.433 47.9766 120.106 49.3033 117.969 49.3033C117.258 49.2869 116.567 49.0611 115.984 48.6542C115.4 48.2473 114.95 47.6774 114.689 47.0158L112.201 48.0376C112.677 49.1693 113.477 50.1352 114.501 50.8136C115.524 51.492 116.726 51.8526 117.954 51.8501C121.281 51.8501 124.058 49.8676 124.058 45.0943V33.5501H121.418V34.6176H121.433ZM118.168 43.5846C116.123 43.4016 114.567 41.6936 114.567 39.6501C114.567 37.6066 116.123 35.8986 118.168 35.7156C119.16 35.7613 120.075 36.2188 120.731 36.9356C121.403 37.6981 121.723 38.6588 121.647 39.6501C121.738 40.6413 121.403 41.6326 120.731 42.3646C120.09 43.1271 119.16 43.5541 118.168 43.5846ZM155.339 26.6876H148.534V45.7501H151.387V38.5216H155.385C157.598 38.6741 159.719 37.6066 160.878 35.6851C162.038 33.7941 162.038 31.4151 160.878 29.5241C160.311 28.593 159.499 27.8358 158.53 27.3355C157.561 26.8352 156.473 26.611 155.385 26.6876H155.339ZM155.339 35.8376H151.372V29.3411H155.416C157.216 29.3411 158.696 30.8051 158.696 32.6198C158.696 34.4041 157.216 35.8681 155.416 35.8681L155.355 35.8223L155.339 35.8376ZM172.948 33.0926C170.812 32.9706 168.828 34.1143 167.867 35.9901L170.415 37.0576C170.919 36.1121 171.941 35.5631 173.009 35.6546C173.742 35.5631 174.474 35.7766 175.054 36.2646C175.634 36.7221 176 37.3778 176.077 38.0946V38.3081C175.161 37.8201 174.139 37.5761 173.101 37.5761C170.354 37.5761 167.608 39.1011 167.608 41.8461C167.669 43.0661 168.218 44.1641 169.088 44.9571C169.958 45.7501 171.133 46.1466 172.323 46.0551C173.788 46.1618 175.192 45.4451 175.985 44.2251H176.077V45.7501H178.823V38.4301C178.823 35.0751 176.29 33.1383 173.025 33.1383L172.964 33.0926H172.948ZM172.597 43.5388C171.682 43.5388 170.385 43.0813 170.385 41.9223C170.385 40.3973 172.002 39.8788 173.437 39.8788C174.352 39.8788 175.237 40.0771 176.031 40.5193C175.934 41.3473 175.541 42.1123 174.924 42.673C174.307 43.2337 173.508 43.5521 172.674 43.5693L172.613 43.5236L172.597 43.5388ZM188.833 33.5501L185.568 41.8156H185.476L182.073 33.5501H179.022L184.103 45.1096L181.204 51.5146H184.179L191.992 33.5501H188.818H188.833ZM163.198 45.7501H166.036V26.6876H163.183V45.7501H163.198Z" fill="white"/>
<path d="M15.9307 11.5138C15.4271 12.1238 15.1677 12.932 15.2593 13.725V47.275C15.2135 48.0375 15.4576 48.8 15.9612 49.41L16.068 49.5168L34.9437 30.7287V30.2712L16.0222 11.4375L15.9307 11.5443V11.5138Z" fill="url(#paint0_linear_33_152)"/>
<path d="M41.2 37.0117L34.8979 30.7134V30.2559L41.2 24.0034L41.3526 24.0644L48.8296 28.3039C50.9659 29.5239 50.9659 31.5064 48.8296 32.7264L41.3526 36.9507L41.2 37.0117Z" fill="url(#paint1_linear_33_152)"/>
<path d="M41.3526 36.9355L34.9437 30.5L15.9154 49.4863C16.831 50.2793 18.1433 50.3097 19.0893 49.5777L41.3678 36.9507" fill="url(#paint2_linear_33_152)"/>
<path d="M41.3526 24.0644L19.0741 11.4069C18.6168 11.0562 18.0517 10.875 17.4756 10.8945C16.8994 10.914 16.348 11.1328 15.9154 11.5137L34.9437 30.4999L41.3526 24.0644Z" fill="#00F076"/>
<defs>
<linearGradient id="paint0_linear_33_152" x1="1000.37" y1="11.4375" x2="1000.37" y2="3819.36" gradientUnits="userSpaceOnUse">
<stop offset="0.03938" stop-color="#00C3FF"/>
<stop offset="0.97744" stop-color="#00E1FF"/>
</linearGradient>
<linearGradient id="paint1_linear_33_152" x1="1289.22" y1="674.416" x2="-2400.48" y2="674.416" gradientUnits="userSpaceOnUse">
<stop stop-color="#FDDE31"/>
<stop offset="0.4" stop-color="#FABC31"/>
<stop offset="0.77" stop-color="#F8A431"/>
<stop offset="1" stop-color="#F79B31"/>
</linearGradient>
<linearGradient id="paint2_linear_33_152" x1="2208.67" y1="379.72" x2="-216.468" y2="4466.62" gradientUnits="userSpaceOnUse">
<stop stop-color="#FF3A44"/>
<stop offset="1" stop-color="#C4206D"/>
</linearGradient>
</defs>
</svg>
