<svg width="168" height="41" viewBox="0 0 168 41" fill="none" xmlns="http://www.w3.org/2000/svg">
<path d="M26.6263 19.0462C26.5803 14.5235 30.6805 12.3042 30.8648 12.2199C28.5306 9.12984 24.9371 8.70846 23.6471 8.66632C20.6526 8.35731 17.7194 10.3097 16.1838 10.3097C14.602 10.3097 12.2371 8.68037 9.6879 8.73655C6.41692 8.77869 3.34558 10.5204 1.65635 13.2312C-1.82962 18.7091 0.765659 26.8277 4.11342 31.2802C5.77194 33.4573 7.72224 35.9154 10.2561 35.8171C12.7592 35.7187 13.696 34.3563 16.7059 34.3563C19.6851 34.3563 20.5451 35.803 23.1557 35.7609C25.8431 35.7047 27.5324 33.5557 29.1448 31.3505C31.0644 28.8503 31.8476 26.3923 31.8783 26.2658C31.8169 26.2378 26.657 24.4399 26.6263 19.0182V19.0462ZM21.7122 5.73073C23.0482 4.18568 23.9696 2.12093 23.7086 0C21.7736 0.0702295 19.3473 1.22199 17.9498 2.72491C16.7213 4.04522 15.6002 6.23638 15.892 8.25899C18.0726 8.39945 20.3147 7.24769 21.7275 5.73073H21.7122ZM62.7299 35.5081H59.2439L57.3397 30.0301H50.6903L48.8782 35.5081H45.4997L52.057 16.827H56.1112L62.7145 35.5081H62.7299ZM56.7408 27.7126L55.0516 22.8386C54.8519 22.333 54.5141 21.1531 54.0073 19.3272H53.9459C53.7462 20.1137 53.4237 21.2936 52.9784 22.8386L51.2584 27.7126H56.7561H56.7408ZM79.653 28.6256C79.653 30.901 78.9773 32.6989 77.6259 34.0473C76.3974 35.2271 74.9078 35.8171 73.111 35.8171C71.1607 35.8171 69.7786 35.185 68.9186 33.9068H68.8572V41H65.5862V26.4906C65.5862 25.0439 65.5402 23.569 65.4634 22.0521H68.3504L68.5347 24.2011H68.5962C69.6711 22.5858 71.3604 21.7852 73.5564 21.7852C75.2917 21.7852 76.7352 22.4313 77.9023 23.6814C79.0541 24.9455 79.6376 26.6029 79.6376 28.6536L79.653 28.6256ZM76.3206 28.7239C76.3206 27.4036 75.9827 26.3361 75.3377 25.4933C74.6313 24.5803 73.6792 24.1449 72.4814 24.1449C71.6829 24.1449 70.9457 24.3977 70.2854 24.8893C69.6251 25.381 69.2104 26.013 68.9954 26.8136C68.9033 27.1929 68.8419 27.4878 68.8419 27.7266V29.974C68.8419 30.9572 69.1797 31.7999 69.84 32.4601C70.485 33.1343 71.345 33.4714 72.3893 33.4714C73.6178 33.4714 74.5853 33.05 75.2763 32.1792C75.9674 31.3083 76.3052 30.1566 76.3052 28.7379L76.3206 28.7239ZM96.6067 28.6256C96.6067 30.901 95.9311 32.6989 94.5643 34.0473C93.3665 35.2271 91.8462 35.8171 90.0494 35.8171C88.1145 35.8171 86.717 35.185 85.8724 33.9068H85.8264V41H82.5554V26.4906C82.5554 25.0439 82.5093 23.569 82.4325 22.0521H85.3042L85.4885 24.2011H85.5499C86.6249 22.5858 88.2834 21.7852 90.5102 21.7852C92.2455 21.7852 93.7043 22.4313 94.8561 23.6814C96.0232 24.9455 96.6067 26.6029 96.6067 28.6536V28.6256ZM93.2743 28.7239C93.2743 27.4036 92.9672 26.3361 92.2915 25.4933C91.5698 24.5803 90.633 24.1449 89.4352 24.1449C88.6213 24.1449 87.8995 24.3977 87.2392 24.8893C86.5942 25.381 86.1642 26.013 85.9646 26.8136C85.8571 27.1929 85.811 27.4878 85.811 27.7266V29.974C85.811 30.9572 86.1181 31.7999 86.7938 32.4601C87.4695 33.1343 88.3295 33.4714 89.3738 33.4714C90.6023 33.4714 91.5698 33.05 92.2608 32.1792C92.9365 31.3083 93.2897 30.1566 93.2897 28.7379L93.2743 28.7239ZM115.557 30.2689C115.557 31.8561 114.943 33.1483 113.745 34.1596C112.409 35.2412 110.551 35.789 108.17 35.789C105.974 35.789 104.208 35.4097 102.872 34.6232L103.64 32.123C105.068 32.9096 106.65 33.3028 108.37 33.3028C109.599 33.3028 110.566 33.05 111.257 32.5444C111.933 32.0387 112.286 31.3505 112.286 30.5077C112.286 29.7492 112.01 29.1031 111.441 28.5834C110.888 28.0637 109.936 27.6002 108.631 27.1367C105.053 25.9147 103.256 24.1309 103.256 21.7992C103.256 20.2542 103.87 18.9901 105.145 18.0069C106.374 17.0236 108.063 16.532 110.151 16.532C112.025 16.532 113.561 16.813 114.804 17.4169L113.96 19.875C112.793 19.3131 111.503 19.0322 110.044 19.0322C108.892 19.0322 107.986 19.271 107.341 19.7907C106.773 20.2682 106.512 20.8301 106.512 21.5043C106.512 22.2347 106.819 22.8527 107.433 23.3302C107.986 23.7797 108.969 24.2573 110.412 24.777C112.178 25.4231 113.484 26.1816 114.298 27.0524C115.127 27.8952 115.526 28.9908 115.526 30.283L115.557 30.2689ZM126.399 24.2713H122.775V30.8308C122.775 32.4882 123.389 33.3169 124.679 33.3169C125.262 33.3169 125.754 33.2748 126.138 33.1764L126.23 35.4519C125.569 35.6766 124.725 35.789 123.665 35.789C122.375 35.789 121.362 35.4238 120.625 34.7074C119.903 34.0051 119.55 32.7691 119.55 31.0555V24.2854H117.4V22.038H119.55V19.58L122.775 18.6951V22.0661H126.368V24.3135L126.399 24.2713ZM142.677 28.6677C142.677 30.7324 142.016 32.432 140.727 33.7664C139.344 35.1288 137.563 35.8171 135.321 35.8171C133.171 35.8171 131.451 35.1569 130.176 33.8506C128.887 32.5444 128.242 30.901 128.242 28.8924C128.242 26.7855 128.887 25.0719 130.238 23.7376C131.543 22.4173 133.309 21.7431 135.567 21.7431C137.717 21.7431 139.467 22.4173 140.788 23.7095C142.016 25.0017 142.661 26.6591 142.661 28.6677H142.677ZM139.268 28.766C139.268 27.5019 138.961 26.4484 138.392 25.5635C137.717 24.482 136.734 23.9483 135.475 23.9483C134.154 23.9483 133.14 24.482 132.465 25.5635C131.85 26.4484 131.589 27.53 131.589 28.8222C131.589 30.0582 131.866 31.1257 132.465 32.0106C133.171 33.1062 134.154 33.6399 135.428 33.6399C136.688 33.6399 137.671 33.0781 138.377 31.9966C138.961 31.0836 139.268 30.0021 139.268 28.766ZM153.304 24.6646C152.997 24.6084 152.628 24.5803 152.275 24.5803C151.123 24.5803 150.232 25.0017 149.603 25.7742C149.081 26.4765 148.804 27.3755 148.804 28.443V35.5081H145.533L145.564 26.2799C145.564 24.7348 145.518 23.3302 145.441 22.038H148.267L148.389 24.6365H148.482C148.835 23.7376 149.372 23.0353 150.125 22.4875C150.847 22.0099 151.63 21.7852 152.49 21.7852C152.797 21.7852 153.043 21.7852 153.288 21.8273V24.6787L153.304 24.6646ZM167.954 28.1339C167.954 28.6677 167.908 29.1172 167.831 29.4964H158.003C158.049 30.8308 158.525 31.8421 159.431 32.5444C160.276 33.1624 161.351 33.4714 162.656 33.4714C164.115 33.4714 165.42 33.2607 166.649 32.8393L167.14 34.9462C165.758 35.48 164.099 35.7609 162.226 35.7609C159.922 35.7609 158.126 35.1429 156.82 33.9349C155.515 32.6708 154.87 31.0415 154.87 28.9767C154.87 26.94 155.484 25.2405 156.682 23.8921C157.972 22.4594 159.692 21.729 161.857 21.729C163.977 21.729 165.589 22.4313 166.679 23.878C167.555 25.0298 168 26.4344 168 28.1199L167.954 28.1339ZM164.821 27.3614C164.852 26.4765 164.637 25.704 164.207 25.0579C163.623 24.2151 162.748 23.7938 161.596 23.7938C160.521 23.7938 159.646 24.2151 158.986 25.0298C158.433 25.6759 158.11 26.4344 158.003 27.3614H164.821ZM55.6812 5.30935C55.6812 6.99486 55.1437 8.21685 54.0534 9.05961C53.0398 9.83213 51.5963 10.2114 49.7535 10.2114C48.8321 10.2114 48.0643 10.1552 47.4193 10.0709V1.09558C48.2639 0.955122 49.1853 0.912984 50.1835 0.912984C51.9495 0.912984 53.2548 1.26413 54.1762 1.95238C55.1591 2.73895 55.6658 3.86262 55.6658 5.3234L55.6812 5.30935ZM53.9919 5.36554C53.9919 4.29805 53.6848 3.46934 53.0705 2.89346C52.4256 2.33162 51.5349 2.0507 50.3371 2.0507C49.8303 2.0507 49.4157 2.0507 49.0317 2.13498V9.01747C49.2314 9.01747 49.5999 9.04556 50.1067 9.04556C51.3352 9.04556 52.3027 8.72251 52.9784 8.10449C53.6234 7.45838 53.9612 6.55944 53.9612 5.35149L53.9919 5.36554ZM64.6648 6.77013C64.6648 7.78143 64.3577 8.62419 63.7434 9.2703C63.0524 9.9445 62.1771 10.2816 61.0714 10.2816C59.9964 10.2816 59.1671 9.95855 58.5375 9.29839C57.9233 8.66632 57.6161 7.85166 57.6161 6.86845C57.6161 5.85714 57.9233 5.04248 58.5836 4.36828C59.2286 3.72217 60.1193 3.38506 61.1942 3.38506C62.2692 3.38506 63.1292 3.70812 63.7742 4.36828C64.3884 4.9863 64.6956 5.77287 64.6956 6.78417L64.6648 6.77013ZM63.0063 6.81226C63.0063 6.20829 62.8528 5.68859 62.5763 5.23912C62.2385 4.71942 61.7624 4.45255 61.1328 4.45255C60.4878 4.45255 59.9964 4.70538 59.6586 5.22508C59.3514 5.64645 59.2286 6.20829 59.2286 6.82631C59.2286 7.41624 59.3821 7.94998 59.6586 8.37136C60.0118 8.9051 60.4878 9.17198 61.1174 9.17198C61.7317 9.17198 62.1924 8.89106 62.5456 8.37136C62.8528 7.92189 63.0063 7.38815 63.0063 6.78417V6.81226ZM76.7506 3.51148L74.4778 10.1131H72.9882L72.0668 7.26173C71.8057 6.5173 71.6061 5.81501 71.4525 5.09866C71.2989 5.82905 71.0993 6.54539 70.8382 7.24769L69.8554 10.099H68.3504L66.2312 3.49743H67.8897L68.719 6.62967C68.9186 7.3741 69.0876 8.0764 69.2258 8.73655C69.3793 8.20281 69.5636 7.50051 69.84 6.62967L70.8689 3.48338H72.1896L73.1724 6.57348C73.4028 7.33196 73.6024 8.06235 73.756 8.7506H73.7867C73.8942 8.0764 74.0631 7.34601 74.2781 6.57348L75.1688 3.48338H76.7352L76.7506 3.51148ZM85.0892 10.1271H83.4768V6.3347C83.4768 5.16889 82.9854 4.59301 82.0179 4.59301C81.5572 4.59301 81.1579 4.73347 80.8508 5.05653C80.5437 5.37958 80.3901 5.75882 80.3901 6.1802V10.1131H78.793V5.39363C78.793 4.8037 78.793 4.17163 78.7469 3.49743H80.1751L80.2365 4.52278H80.2826C80.4669 4.21377 80.7433 3.96095 81.1119 3.73621C81.5726 3.45529 82.0333 3.34293 82.5861 3.34293C83.2618 3.34293 83.8146 3.53957 84.2753 3.9469C84.8282 4.43851 85.1046 5.16889 85.1046 6.13806V10.1131L85.0892 10.1271ZM89.5427 10.1271H87.9149V0.477561H89.5273L89.5427 10.1271ZM99.0024 6.77013C99.0024 7.78143 98.6953 8.62419 98.0503 9.2703C97.3746 9.9445 96.5146 10.2816 95.3936 10.2816C94.3493 10.2816 93.5047 9.95855 92.8751 9.29839C92.2608 8.66632 91.923 7.85166 91.923 6.86845C91.923 5.85714 92.2301 5.04248 92.9058 4.36828C93.5508 3.72217 94.4415 3.38506 95.5164 3.38506C96.5914 3.38506 97.436 3.70812 98.0964 4.36828C98.7106 4.9863 99.0177 5.77287 99.0177 6.78417L99.0024 6.77013ZM97.3132 6.81226C97.3132 6.20829 97.1903 5.68859 96.8985 5.23912C96.5453 4.71942 96.0693 4.45255 95.4396 4.45255C94.7947 4.45255 94.3033 4.70538 93.9654 5.22508C93.6583 5.64645 93.5047 6.20829 93.5047 6.82631C93.5047 7.41624 93.6583 7.94998 93.9654 8.37136C94.3033 8.9051 94.7793 9.17198 95.4089 9.17198C96.0232 9.17198 96.4839 8.89106 96.8525 8.37136C97.1596 7.92189 97.3132 7.38815 97.3132 6.78417V6.81226ZM106.788 10.1271H105.345L105.191 9.36862H105.16C104.669 9.95855 103.963 10.2676 103.057 10.2676C102.381 10.2676 101.828 10.0709 101.413 9.66358C101.029 9.32648 100.845 8.86297 100.845 8.32922C100.845 7.5286 101.214 6.92463 101.951 6.47516C102.688 6.05379 103.732 5.8431 105.084 5.85714V5.71668C105.084 4.84584 104.577 4.41041 103.579 4.41041C102.857 4.41041 102.227 4.57897 101.69 4.90202L101.383 3.91881C102.043 3.55361 102.872 3.35697 103.84 3.35697C105.744 3.35697 106.696 4.26996 106.696 6.09592V8.53991C106.696 9.21411 106.727 9.74786 106.804 10.1271H106.788ZM105.099 7.85166V6.86845C103.348 6.82631 102.458 7.26173 102.458 8.18876C102.458 8.52587 102.565 8.79274 102.765 8.96129C102.98 9.10175 103.256 9.20007 103.563 9.20007C103.917 9.20007 104.254 9.10175 104.546 8.89106C104.853 8.69442 105.038 8.42754 105.114 8.11853V7.83762L105.099 7.85166ZM115.925 10.1271H114.497L114.436 9.07366H114.405C113.944 9.87427 113.177 10.2816 112.071 10.2816C111.196 10.2816 110.474 9.97259 109.921 9.34053C109.307 8.70846 109.03 7.90785 109.03 6.89654C109.03 5.82905 109.337 4.9582 109.982 4.29805C110.597 3.68003 111.318 3.37102 112.209 3.37102C113.177 3.37102 113.868 3.65194 114.252 4.26996H114.282V0.477561H115.895V8.34327C115.895 8.98938 115.895 9.57931 115.941 10.1271H115.925ZM114.267 7.34601V6.22234C114.267 6.03974 114.267 5.88523 114.221 5.77287C114.129 5.42172 113.914 5.11271 113.637 4.87393C113.33 4.6211 112.962 4.50874 112.562 4.50874C111.948 4.50874 111.487 4.71942 111.134 5.15485C110.796 5.57623 110.612 6.13806 110.612 6.84036C110.612 7.48647 110.766 8.02021 111.103 8.42754C111.457 8.84892 111.933 9.0877 112.516 9.0877C112.762 9.09438 113.007 9.04683 113.229 8.94905C113.45 8.85126 113.643 8.70612 113.791 8.52586C114.098 8.20281 114.252 7.79548 114.252 7.31792L114.267 7.34601ZM129.7 6.77013C129.7 7.78143 129.393 8.62419 128.748 9.2703C128.073 9.9445 127.213 10.2816 126.092 10.2816C125.017 10.2816 124.187 9.95855 123.558 9.29839C122.943 8.66632 122.606 7.85166 122.606 6.86845C122.606 5.85714 122.913 5.04248 123.588 4.36828C124.233 3.72217 125.124 3.38506 126.199 3.38506C127.274 3.38506 128.134 3.70812 128.779 4.36828C129.393 4.9863 129.7 5.77287 129.7 6.78417V6.77013ZM128.011 6.81226C128.011 6.20829 127.888 5.68859 127.597 5.23912C127.259 4.71942 126.783 4.45255 126.153 4.45255C125.508 4.45255 125.017 4.70538 124.679 5.22508C124.372 5.64645 124.249 6.20829 124.249 6.82631C124.249 7.41624 124.402 7.94998 124.679 8.37136C125.032 8.9051 125.508 9.17198 126.138 9.17198C126.752 9.17198 127.243 8.89106 127.581 8.37136C127.888 7.92189 128.042 7.38815 128.042 6.78417L128.011 6.81226ZM138.346 10.1271H136.749V6.3347C136.749 5.16889 136.258 4.59301 135.29 4.59301C134.783 4.59301 134.4 4.73347 134.108 5.05653C133.801 5.37958 133.647 5.75882 133.647 6.1802V10.1131H132.081V5.39363C132.081 4.8037 132.05 4.17163 132.004 3.49743H133.417L133.494 4.52278H133.54C133.724 4.21377 134 3.96095 134.369 3.73621C134.799 3.45529 135.29 3.34293 135.812 3.34293C136.488 3.34293 137.041 3.53957 137.502 3.9469C138.054 4.43851 138.331 5.16889 138.331 6.13806V10.1131L138.346 10.1271ZM149.188 4.60706H147.407V7.83762C147.407 8.65228 147.714 9.05961 148.328 9.05961C148.635 9.05961 148.881 9.03152 149.065 8.98938L149.111 10.1131C148.773 10.2114 148.343 10.2535 147.837 10.2535C147.222 10.2535 146.716 10.085 146.347 9.73381C145.994 9.38266 145.81 8.79274 145.81 7.94998V4.60706H144.735L144.765 3.51148H145.81V2.28948L147.391 1.86811V3.48338H149.173V4.57896L149.188 4.60706ZM157.696 10.1271H156.083V6.3628C156.083 5.18294 155.623 4.57896 154.64 4.57896C153.872 4.57896 153.365 4.93011 153.104 5.61836C153.027 5.75882 153.012 5.94142 153.012 6.15211V10.1271H151.399V0.477561H152.996V4.4666H153.027C153.534 3.73621 154.256 3.37102 155.177 3.37102C155.868 3.37102 156.406 3.56766 156.866 3.97499C157.404 4.4666 157.665 5.21103 157.665 6.19424V10.1271H157.696ZM166.48 6.50326C166.48 6.78417 166.48 6.99486 166.434 7.17746H161.612C161.612 7.82357 161.857 8.32922 162.303 8.66632C162.717 8.94724 163.224 9.11579 163.884 9.11579C164.606 9.11579 165.267 9.01747 165.85 8.80678L166.096 9.83213C165.42 10.1131 164.606 10.2535 163.669 10.2535C162.548 10.2535 161.673 9.9445 161.028 9.34053C160.383 8.73655 160.076 7.93594 160.076 6.89654C160.076 5.91333 160.383 5.07057 160.967 4.41041C161.581 3.70812 162.426 3.34293 163.5 3.34293C164.529 3.34293 165.343 3.72216 165.865 4.42446C166.28 4.9863 166.48 5.68859 166.48 6.50326ZM164.944 6.12401C164.975 5.70264 164.867 5.30935 164.637 5.00034C164.36 4.57897 163.946 4.38232 163.362 4.38232C162.84 4.38232 162.41 4.57897 162.088 4.9863C161.811 5.29531 161.658 5.68859 161.627 6.10997H164.959L164.944 6.12401Z" fill="white"/>
</svg>
